<?xml version="1.0" encoding="utf-8"?>
<svg version="1.1" xmlns:xlink="http://www.w3.org/1999/xlink" width="33px" height="36px" xmlns="http://www.w3.org/2000/svg">
  <g transform="matrix(1 0 0 1 -365 -626 )">
    <path d="M 5.091796875 30.0504807692308  C 5.36393229166667 29.7764423076923  5.5 29.4519230769231  5.5 29.0769230769231  C 5.5 28.7019230769231  5.36393229166667 28.3774038461539  5.091796875 28.1033653846154  C 4.81966145833333 27.8293269230769  4.49739583333333 27.6923076923077  4.125 27.6923076923077  C 3.75260416666667 27.6923076923077  3.43033854166667 27.8293269230769  3.158203125 28.1033653846154  C 2.88606770833333 28.3774038461539  2.75 28.7019230769231  2.75 29.0769230769231  C 2.75 29.4519230769231  2.88606770833333 29.7764423076923  3.158203125 30.0504807692308  C 3.43033854166667 30.3245192307692  3.75260416666667 30.4615384615385  4.125 30.4615384615385  C 4.49739583333333 30.4615384615385  4.81966145833333 30.3245192307692  5.091796875 30.0504807692308  Z M 29.7880859375 18.3677884615385  C 30.0960286458333 17.7043269230769  30.25 17.1201923076923  30.25 16.6153846153846  C 30.25 15.8798076923077  29.970703125 15.234375  29.412109375 14.6790865384615  C 28.853515625 14.1237980769231  28.2161458333333 13.8461538461538  27.5 13.8461538461538  L 19.9375 13.8461538461538  C 19.9375 13.0096153846154  20.28125 11.859375  20.96875 10.3954326923077  C 21.65625 8.93149038461538  22 7.77403846153846  22 6.92307692307692  C 22 5.50961538461538  21.7708333333333 4.4639423076923  21.3125 3.78605769230769  C 20.8541666666667 3.10817307692307  19.9375 2.76923076923077  18.5625 2.76923076923077  C 18.1901041666667 3.14423076923077  17.91796875 3.75721153846154  17.74609375 4.60817307692308  C 17.57421875 5.45913461538461  17.3557942708333 6.36418269230769  17.0908203125 7.32331730769231  C 16.8258463541667 8.28245192307692  16.3997395833333 9.07211538461538  15.8125 9.69230769230769  C 15.4973958333333 10.0240384615385  14.9459635416667 10.6802884615385  14.158203125 11.6610576923077  C 14.1009114583333 11.7331730769231  13.9361979166667 11.9495192307692  13.6640625 12.3100961538462  C 13.3919270833333 12.6706730769231  13.1663411458333 12.9663461538462  12.9873046875 13.1971153846154  C 12.8082682291667 13.4278846153846  12.5611979166667 13.734375  12.24609375 14.1165865384615  C 11.9309895833333 14.4987980769231  11.64453125 14.8161057692308  11.38671875 15.0685096153846  C 11.12890625 15.3209134615385  10.8531901041667 15.5769230769231  10.5595703125 15.8365384615385  C 10.2659505208333 16.0961538461538  9.9794921875 16.2908653846154  9.7001953125 16.4206730769231  C 9.4208984375 16.5504807692308  9.16666666666667 16.6153846153846  8.9375 16.6153846153846  L 8.25 16.6153846153846  L 8.25 30.4615384615385  L 8.9375 30.4615384615385  C 9.12369791666667 30.4615384615385  9.34928385416667 30.4831730769231  9.6142578125 30.5264423076923  C 9.87923177083333 30.5697115384615  10.1155598958333 30.6165865384615  10.3232421875 30.6670673076923  C 10.5309244791667 30.7175480769231  10.8030598958333 30.796875  11.1396484375 30.9050480769231  C 11.4762369791667 31.0132211538462  11.7268880208333 31.0961538461538  11.8916015625 31.1538461538462  C 12.0563151041667 31.2115384615385  12.310546875 31.3016826923077  12.654296875 31.4242788461538  C 12.998046875 31.546875  13.2057291666667 31.6225961538462  13.27734375 31.6514423076923  C 16.2994791666667 32.7043269230769  18.7486979166667 33.2307692307692  20.625 33.2307692307692  L 23.224609375 33.2307692307692  C 25.974609375 33.2307692307692  27.349609375 32.0264423076923  27.349609375 29.6177884615385  C 27.349609375 29.2427884615385  27.3138020833333 28.8389423076923  27.2421875 28.40625  C 27.671875 28.1754807692308  28.0120442708333 27.796875  28.2626953125 27.2704326923077  C 28.5133463541667 26.7439903846154  28.638671875 26.2139423076923  28.638671875 25.6802884615385  C 28.638671875 25.1466346153846  28.509765625 24.6490384615385  28.251953125 24.1875  C 29.0110677083333 23.4663461538462  29.390625 22.6081730769231  29.390625 21.6129807692308  C 29.390625 21.2524038461538  29.3190104166667 20.8521634615385  29.17578125 20.4122596153846  C 29.0325520833333 19.9723557692308  28.853515625 19.6298076923077  28.638671875 19.3846153846154  C 29.0970052083333 19.3701923076923  29.4801432291667 19.03125  29.7880859375 18.3677884615385  Z M 31.3671875 12.7211538461538  C 32.4557291666667 13.8173076923077  33 15.1081730769231  33 16.59375  C 33 17.8774038461538  32.6490885416667 19.0528846153846  31.947265625 20.1201923076923  C 32.076171875 20.5961538461538  32.140625 21.09375  32.140625 21.6129807692308  C 32.140625 22.7235576923077  31.8684895833333 23.7620192307692  31.32421875 24.7283653846154  C 31.3671875 25.03125  31.388671875 25.3413461538461  31.388671875 25.6586538461538  C 31.388671875 27.1153846153846  30.958984375 28.3990384615385  30.099609375 29.5096153846154  C 30.1139322916667 31.5144230769231  29.5052083333333 33.0973557692308  28.2734375 34.2584134615385  C 27.0416666666667 35.4194711538462  25.416015625 36  23.396484375 36  L 22.623046875 36  L 20.625 36  C 19.25 36  17.8929036458333 35.8377403846154  16.5537109375 35.5132211538462  C 15.2145182291667 35.1887019230769  13.6640625 34.7163461538462  11.90234375 34.0961538461538  C 10.2408854166667 33.5192307692308  9.25260416666667 33.2307692307692  8.9375 33.2307692307692  L 2.75 33.2307692307692  C 1.99088541666667 33.2307692307692  1.3427734375 32.9603365384615  0.8056640625 32.4194711538462  C 0.2685546875 31.8786057692308  0 31.2259615384615  0 30.4615384615385  L 0 16.6153846153846  C 0 15.8509615384615  0.2685546875 15.1983173076923  0.8056640625 14.6574519230769  C 1.3427734375 14.1165865384615  1.99088541666667 13.8461538461538  2.75 13.8461538461538  L 8.63671875 13.8461538461538  C 9.15234375 13.5  10.1334635416667 12.3822115384615  11.580078125 10.4927884615385  C 12.4108072916667 9.41105769230769  13.1770833333333 8.48798076923077  13.87890625 7.72355769230769  C 14.22265625 7.36298076923077  14.4768880208333 6.74639423076923  14.6416015625 5.87379807692308  C 14.8063151041667 5.00120192307692  15.0247395833333 4.08894230769231  15.296875 3.13701923076923  C 15.5690104166667 2.18509615384616  16.0130208333333 1.40625  16.62890625 0.800480769230767  C 17.1875 0.266826923076925  17.83203125 0  18.5625 0  C 19.765625 0  20.8470052083333 0.234375000000003  21.806640625 0.703125  C 22.7662760416667 1.171875  23.4967447916667 1.90384615384616  23.998046875 2.89903846153846  C 24.4993489583333 3.89423076923077  24.75 5.23557692307692  24.75 6.92307692307692  C 24.75 8.26442307692308  24.40625 9.64903846153846  23.71875 11.0769230769231  L 27.5 11.0769230769231  C 28.9895833333333 11.0769230769231  30.2786458333333 11.625  31.3671875 12.7211538461538  Z " fill-rule="nonzero" fill="#000000" stroke="none" transform="matrix(1 0 0 1 365 626 )" />
  </g>
</svg>