<?xml version="1.0" encoding="utf-8"?>
<svg version="1.1" xmlns:xlink="http://www.w3.org/1999/xlink" width="20px" height="21px" xmlns="http://www.w3.org/2000/svg">
  <g transform="matrix(1 0 0 1 -89 -747 )">
    <path d="M 14.1604350781781 18.4091796875  C 15.3342397462044 17.8486328125  16.3335599365511 17.0670572916667  17.1583956492182 16.064453125  C 16.6689326988443 16.146484375  16.1704056197598 16.1875  15.6628144119646 16.1875  C 14.0131429866304 16.1875  12.4858372988896 15.77734375  11.0808973487424 14.95703125  C 9.67595739859506 14.13671875  8.56560163154317 13.0201822916667  7.74983004758668 11.607421875  C 6.93405846363018 10.1946614583333  6.52617267165194 8.65885416666667  6.52617267165194 7  C 6.52617267165194 5.25  6.99750736460458 3.623046875  7.94017675050986 2.119140625  C 6.11828687967369 2.666015625  4.62950373895309 3.70963541666666  3.47382732834806 5.25  C 2.31815091774303 6.79036458333333  1.74031271244052 8.54036458333333  1.74031271244052 10.5  C 1.74031271244052 11.6848958333333  1.97144799456152 12.8173828125  2.43371855880354 13.8974609375  C 2.89598912304555 14.9775390625  3.51461590754589 15.9072265625  4.28959891230455 16.6865234375  C 5.06458191706322 17.4658203125  5.98912304554725 18.087890625  7.06322229775663 18.552734375  C 8.13732154996601 19.017578125  9.2635395422615 19.25  10.4418762746431 19.25  C 11.7471108089735 19.25  12.9866304101518 18.9697265625  14.1604350781781 18.4091796875  Z M 19.9796057104011 14.3828125  C 20.0113301608883 14.5651041666667  19.9909358712894 14.73828125  19.9184228416044 14.90234375  C 19.0663947428054 16.7526041666667  17.7815544980739 18.2314453125  16.0639021074099 19.3388671875  C 14.346249716746 20.4462890625  12.4722411058237 21  10.4418762746431 21  C 9.02787219578518 21  7.67731701790165 20.7220052083333  6.39021074099252 20.166015625  C 5.10310446408339 19.6100260416667  3.9927486970315 18.8626302083333  3.05914343983685 17.923828125  C 2.12553818264219 16.9850260416667  1.38227962837072 15.8684895833333  0.829367777022434 14.57421875  C 0.276455925674145 13.2799479166667  0 11.921875  0 10.5  C 0 9.10546875  0.260593700430546 7.7724609375  0.781781101291638 6.5009765625  C 1.30296850215273 5.2294921875  2.00997054158169 4.12890625  2.90278721957852 3.19921875  C 3.79560389757535 2.26953125  4.86290505325176 1.51985677083333  6.10469068660775 0.950195312500001  C 7.34647631996374 0.380533854166666  8.66077498300476 0.0683593750000008  10.0475866757308 0.0136718749999992  C 10.4464083389984 -0.00455729166667029  10.7228642646726 0.173177083333331  10.8769544527532 0.546874999999999  C 11.0401087695445 0.920572916666665  10.9721278042148 1.24869791666666  10.6730115567641 1.53125  C 9.89349648765013 2.2421875  9.29753002492635 3.0693359375  8.88511216859279 4.0126953125  C 8.47269431225923 4.9560546875  8.26648538409246 5.95182291666667  8.26648538409246 7  C 8.26648538409246 8.34895833333333  8.59732608203037 9.59309895833333  9.25900747790619 10.732421875  C 9.92068887378201 11.8717447916667  10.8180376161342 12.7740885416667  11.9510537049626 13.439453125  C 13.0840697937911 14.1048177083333  14.3213233627918 14.4375  15.6628144119646 14.4375  C 16.7323815998187 14.4375  17.7656922728303 14.205078125  18.7627464309993 13.740234375  C 19.1343757081351 13.576171875  19.4606843417177 13.6354166666667  19.7416723317471 13.91796875  C 19.8685701336959 14.0455729166667  19.9478812599139 14.2005208333333  19.9796057104011 14.3828125  Z " fill-rule="nonzero" fill="#000000" stroke="none" transform="matrix(1 0 0 1 89 747 )" />
  </g>
</svg>