<?xml version="1.0" encoding="utf-8"?>
<svg version="1.1" xmlns:xlink="http://www.w3.org/1999/xlink" width="29px" height="20px" xmlns="http://www.w3.org/2000/svg">
  <g transform="matrix(1 0 0 1 -273 -748 )">
    <path d="M 4 1  L 4 12  L 28.09375 12  C 28.3391927083333 12  28.5515950520833 12.0989583333333  28.73095703125 12.296875  C 28.9103190104167 12.4947916666667  29 12.7291666666667  29 13  L 29 20  L 25.375 20  L 25.375 16  L 3.625 16  L 3.625 20  L 0 20  L 0 1  C 0 0.729166666666665  0.0896809895833333 0.494791666666665  0.26904296875 0.296875000000001  C 0.448404947916667 0.0989583333333321  0.660807291666667 0  0.90625 0  L 2.71875 0  C 2.96419270833333 0  3.17659505208333 0.0989583333333321  3.35595703125 0.296875000000001  C 3.53531901041667 0.494791666666665  3.625 0.729166666666665  4 1  Z M 10.71923828125 9.828125  C 11.42724609375 9.046875  11.78125 8.10416666666667  11.78125 7  C 11.78125 5.89583333333333  11.42724609375 4.953125  10.71923828125 4.171875  C 10.01123046875 3.390625  9.15690104166667 3  8.15625 3  C 7.15559895833333 3  6.30126953125 3.390625  5.59326171875 4.171875  C 4.88525390625 4.953125  4.53125 5.89583333333333  4.53125 7  C 4.53125 8.10416666666667  4.88525390625 9.046875  5.59326171875 9.828125  C 6.30126953125 10.609375  7.15559895833333 11  8.15625 11  C 9.15690104166667 11  10.01123046875 10.609375  10.71923828125 9.828125  Z M 12.6875 11  L 29 11  L 29 10  C 29 8.34375  28.468994140625 6.9296875  27.406982421875 5.7578125  C 26.344970703125 4.5859375  25.0634765625 4  23.5625 4  L 13.59375 4  C 13.3483072916667 4  13.1359049479167 4.09895833333333  12.95654296875 4.296875  C 12.7771809895833 4.49479166666667  12.6875 4.72916666666667  12.6875 5  L 12.6875 11  Z " fill-rule="nonzero" fill="#000000" stroke="none" transform="matrix(1 0 0 1 273 748 )" />
  </g>
</svg>