<?xml version="1.0" encoding="utf-8"?>
<svg version="1.1" xmlns:xlink="http://www.w3.org/1999/xlink" width="27px" height="29px" xmlns="http://www.w3.org/2000/svg">
  <g transform="matrix(1 0 0 1 -390 -148 )">
    <path d="M 2.07692307692308 22.2678571428571  L 2.07692307692308 26.9285714285714  L 6.75 26.9285714285714  L 6.75 22.2678571428571  L 2.07692307692308 22.2678571428571  Z M 7.78846153846154 22.2678571428571  L 7.78846153846154 26.9285714285714  L 12.9807692307692 26.9285714285714  L 12.9807692307692 22.2678571428571  L 7.78846153846154 22.2678571428571  Z M 2.07692307692308 16.0535714285714  L 2.07692307692308 21.2321428571429  L 6.75 21.2321428571429  L 6.75 16.0535714285714  L 2.07692307692308 16.0535714285714  Z M 7.78846153846154 16.0535714285714  L 7.78846153846154 21.2321428571429  L 12.9807692307692 21.2321428571429  L 12.9807692307692 16.0535714285714  L 7.78846153846154 16.0535714285714  Z M 2.07692307692308 10.3571428571429  L 2.07692307692308 15.0178571428571  L 6.75 15.0178571428571  L 6.75 10.3571428571429  L 2.07692307692308 10.3571428571429  Z M 14.0192307692308 22.2678571428571  L 14.0192307692308 26.9285714285714  L 19.2115384615385 26.9285714285714  L 19.2115384615385 22.2678571428571  L 14.0192307692308 22.2678571428571  Z M 7.78846153846154 10.3571428571429  L 7.78846153846154 15.0178571428571  L 12.9807692307692 15.0178571428571  L 12.9807692307692 10.3571428571429  L 7.78846153846154 10.3571428571429  Z M 20.25 22.2678571428571  L 20.25 26.9285714285714  L 24.9230769230769 26.9285714285714  L 24.9230769230769 22.2678571428571  L 20.25 22.2678571428571  Z M 14.0192307692308 16.0535714285714  L 14.0192307692308 21.2321428571429  L 19.2115384615385 21.2321428571429  L 19.2115384615385 16.0535714285714  L 14.0192307692308 16.0535714285714  Z M 8.15354567307692 7.61411830357143  C 8.25631009615385 7.51162574404762  8.30769230769231 7.39025297619047  8.30769230769231 7.25  L 8.30769230769231 2.58928571428571  C 8.30769230769231 2.44903273809524  8.25631009615385 2.32765997023809  8.15354567307692 2.22516741071429  C 8.05078125 2.12267485119047  7.92908653846154 2.07142857142857  7.78846153846154 2.07142857142857  L 6.75 2.07142857142857  C 6.609375 2.07142857142857  6.48768028846154 2.12267485119047  6.38491586538462 2.22516741071429  C 6.28215144230769 2.32765997023809  6.23076923076923 2.44903273809524  6.23076923076923 2.58928571428571  L 6.23076923076923 7.25  C 6.23076923076923 7.39025297619047  6.28215144230769 7.51162574404762  6.38491586538462 7.61411830357143  C 6.48768028846154 7.71661086309524  6.609375 7.76785714285714  6.75 7.76785714285714  L 7.78846153846154 7.76785714285714  C 7.92908653846154 7.76785714285714  8.05078125 7.71661086309524  8.15354567307692 7.61411830357143  Z M 20.25 16.0535714285714  L 20.25 21.2321428571429  L 24.9230769230769 21.2321428571429  L 24.9230769230769 16.0535714285714  L 20.25 16.0535714285714  Z M 14.0192307692308 10.3571428571429  L 14.0192307692308 15.0178571428571  L 19.2115384615385 15.0178571428571  L 19.2115384615385 10.3571428571429  L 14.0192307692308 10.3571428571429  Z M 20.25 10.3571428571429  L 20.25 15.0178571428571  L 24.9230769230769 15.0178571428571  L 24.9230769230769 10.3571428571429  L 20.25 10.3571428571429  Z M 20.6150841346154 7.61411830357143  C 20.7178485576923 7.51162574404762  20.7692307692308 7.39025297619047  20.7692307692308 7.25  L 20.7692307692308 2.58928571428571  C 20.7692307692308 2.44903273809524  20.7178485576923 2.32765997023809  20.6150841346154 2.22516741071429  C 20.5123197115385 2.12267485119047  20.390625 2.07142857142857  20.25 2.07142857142857  L 19.2115384615385 2.07142857142857  C 19.0709134615385 2.07142857142857  18.94921875 2.12267485119047  18.8464543269231 2.22516741071429  C 18.7436899038462 2.32765997023809  18.6923076923077 2.44903273809524  18.6923076923077 2.58928571428571  L 18.6923076923077 7.25  C 18.6923076923077 7.39025297619047  18.7436899038462 7.51162574404762  18.8464543269231 7.61411830357143  C 18.94921875 7.71661086309524  19.0709134615385 7.76785714285714  19.2115384615385 7.76785714285714  L 20.25 7.76785714285714  C 20.390625 7.76785714285714  20.5123197115385 7.71661086309524  20.6150841346154 7.61411830357143  Z M 26.3834134615385 4.7578125  C 26.7944711538462 5.16778273809524  27 5.65327380952381  27 6.21428571428571  L 27 26.9285714285714  C 27 27.4895833333333  26.7944711538462 27.9750744047619  26.3834134615385 28.3850446428571  C 25.9723557692308 28.7950148809524  25.4855769230769 29  24.9230769230769 29  L 2.07692307692308 29  C 1.51442307692308 29  1.02764423076923 28.7950148809524  0.616586538461538 28.3850446428571  C 0.205528846153846 27.9750744047619  0 27.4895833333333  0 26.9285714285714  L 0 6.21428571428571  C 0 5.65327380952381  0.205528846153846 5.16778273809524  0.616586538461538 4.7578125  C 1.02764423076923 4.34784226190476  1.51442307692308 4.14285714285714  2.07692307692308 4.14285714285714  L 4.15384615384615 4.14285714285714  L 4.15384615384615 2.58928571428571  C 4.15384615384615 1.87723214285714  4.40805288461539 1.26767113095238  4.91646634615385 0.760602678571429  C 5.42487980769231 0.253534226190476  6.03605769230769 0  6.75 0  L 7.78846153846154 0  C 8.50240384615385 0  9.11358173076923 0.253534226190476  9.62199519230769 0.760602678571429  C 10.1304086538462 1.26767113095238  10.3846153846154 1.87723214285714  10.3846153846154 2.58928571428571  L 10.3846153846154 4.14285714285714  L 16.6153846153846 4.14285714285714  L 16.6153846153846 2.58928571428571  C 16.6153846153846 1.87723214285714  16.8695913461538 1.26767113095238  17.3780048076923 0.760602678571429  C 17.8864182692308 0.253534226190476  18.4975961538462 0  19.2115384615385 0  L 20.25 0  C 20.9639423076923 0  21.5751201923077 0.253534226190476  22.0835336538462 0.760602678571429  C 22.5919471153846 1.26767113095238  22.8461538461538 1.87723214285714  22.8461538461538 2.58928571428571  L 22.8461538461538 4.14285714285714  L 24.9230769230769 4.14285714285714  C 25.4855769230769 4.14285714285714  25.9723557692308 4.34784226190476  26.3834134615385 4.7578125  Z " fill-rule="nonzero" fill="#000000" stroke="none" transform="matrix(1 0 0 1 390 148 )" />
  </g>
</svg>