<?xml version="1.0" encoding="utf-8"?>
<svg version="1.1" xmlns:xlink="http://www.w3.org/1999/xlink" width="13px" height="14px" xmlns="http://www.w3.org/2000/svg">
  <g transform="matrix(1 0 0 1 -348 -403 )">
    <path d="M 12.5711805555556 6.384765625  C 12.8570601851852 6.55794270833333  13 6.76302083333333  13 7  C 13 7.23697916666667  12.8570601851852 7.44205729166667  12.5711805555556 7.615234375  L 2.46006944444444 13.740234375  C 2.17418981481481 13.9134114583333  1.83564814814815 14  1.44444444444444 14  C 1.05324074074074 14  0.714699074074074 13.9134114583333  0.428819444444444 13.740234375  C 0.142939814814815 13.5670572916667  0 13.3619791666667  0 13.125  L 0 0.875  C 0 0.638020833333331  0.142939814814815 0.432942708333331  0.428819444444444 0.259765625  C 0.714699074074074 0.0865885416666656  1.05324074074074 0  1.44444444444444 0  C 1.83564814814815 0  2.17418981481481 0.0865885416666656  2.46006944444444 0.259765625  L 12.5711805555556 6.384765625  Z " fill-rule="nonzero" fill="#000000" stroke="none" transform="matrix(1 0 0 1 348 403 )" />
  </g>
</svg>