<?xml version="1.0" encoding="utf-8"?>
<svg version="1.1" xmlns:xlink="http://www.w3.org/1999/xlink" width="8px" height="13px" xmlns="http://www.w3.org/2000/svg">
  <g transform="matrix(1 0 0 1 -78 -514 )">
    <path d="M 5.45703125 3.02994791666667  C 5.65234375 3.24435763888889  5.75 3.49826388888889  5.75 3.79166666666667  C 5.75 3.86501736111111  5.72526041666667 3.92849392361111  5.67578125 3.98209635416667  C 5.62630208333333 4.03569878472222  5.56770833333333 4.0625  5.5 4.0625  C 5.43229166666667 4.0625  5.37369791666667 4.03569878472222  5.32421875 3.98209635416667  C 5.27473958333333 3.92849392361111  5.25 3.86501736111111  5.25 3.79166666666667  C 5.25 3.53211805555555  5.109375 3.33181423611111  4.828125 3.19075520833333  C 4.546875 3.04969618055555  4.27083333333333 2.97916666666667  4 2.97916666666667  C 3.93229166666667 2.97916666666667  3.87369791666667 2.95236545138889  3.82421875 2.89876302083333  C 3.77473958333333 2.84516059027778  3.75 2.78168402777778  3.75 2.70833333333333  C 3.75 2.63498263888889  3.77473958333333 2.57150607638889  3.82421875 2.51790364583333  C 3.87369791666667 2.46430121527778  3.93229166666667 2.4375  4 2.4375  C 4.26041666666667 2.4375  4.51953125 2.48263888888889  4.77734375 2.57291666666667  C 5.03515625 2.66319444444444  5.26171875 2.81553819444444  5.45703125 3.02994791666667  Z M 6.46875 5.31510416666667  C 6.82291666666667 4.86935763888889  7 4.36154513888889  7 3.79166666666667  C 7 3.38541666666667  6.91015625 3.00737847222222  6.73046875 2.65755208333333  C 6.55078125 2.30772569444444  6.31640625 2.02137586805555  6.02734375 1.79850260416667  C 5.73828125 1.57562934027778  5.41796875 1.40071614583333  5.06640625 1.27376302083333  C 4.71484375 1.14680989583333  4.359375 1.08333333333333  4 1.08333333333333  C 3.640625 1.08333333333333  3.28515625 1.14680989583333  2.93359375 1.27376302083333  C 2.58203125 1.40071614583333  2.26171875 1.57562934027778  1.97265625 1.79850260416667  C 1.68359375 2.02137586805555  1.44921875 2.30772569444444  1.26953125 2.65755208333333  C 1.08984375 3.00737847222222  1 3.38541666666667  1 3.79166666666667  C 1 4.36154513888889  1.17708333333333 4.86935763888889  1.53125 5.31510416666667  C 1.58333333333333 5.37717013888889  1.66276041666667 5.47026909722222  1.76953125 5.59440104166667  C 1.87630208333333 5.71853298611111  1.95572916666667 5.81163194444444  2.0078125 5.87369791666667  C 2.67447916666667 6.73697916666667  3.04166666666667 7.57769097222222  3.109375 8.39583333333333  L 4.890625 8.39583333333333  C 4.95833333333333 7.57769097222222  5.32552083333333 6.73697916666667  5.9921875 5.87369791666667  C 6.04427083333333 5.81163194444444  6.12369791666667 5.71853298611111  6.23046875 5.59440104166667  C 6.33723958333333 5.47026909722222  6.41666666666667 5.37717013888889  6.46875 5.31510416666667  Z M 7.65234375 2.23014322916667  C 7.88411458333333 2.71256510416667  8 3.23307291666667  8 3.79166666666667  C 8 4.66623263888889  7.73177083333333 5.42230902777778  7.1953125 6.05989583333333  C 6.9609375 6.33637152777778  6.76692708333333 6.58181423611111  6.61328125 6.79622395833333  C 6.45963541666667 7.01063368055556  6.3046875 7.28005642361111  6.1484375 7.6044921875  C 5.9921875 7.92892795138889  5.90364583333333 8.23220486111111  5.8828125 8.51432291666667  C 6.12760416666667 8.67230902777778  6.25 8.90364583333333  6.25 9.20833333333333  C 6.25 9.41710069444444  6.18489583333333 9.59765625  6.0546875 9.75  C 6.18489583333333 9.90234375  6.25 10.0828993055556  6.25 10.2916666666667  C 6.25 10.5850694444444  6.1328125 10.8135850694444  5.8984375 10.9772135416667  C 5.96614583333333 11.1069878472222  6 11.2395833333333  6 11.375  C 6 11.6345486111111  5.91796875 11.8348524305556  5.75390625 11.9759114583333  C 5.58984375 12.1169704861111  5.38802083333333 12.1875  5.1484375 12.1875  C 5.04427083333333 12.4357638888889  4.88802083333333 12.6332465277778  4.6796875 12.7799479166667  C 4.47135416666667 12.9266493055556  4.24479166666667 13  4 13  C 3.75520833333333 13  3.52864583333333 12.9266493055556  3.3203125 12.7799479166667  C 3.11197916666667 12.6332465277778  2.95572916666667 12.4357638888889  2.8515625 12.1875  C 2.61197916666667 12.1875  2.41015625 12.1169704861111  2.24609375 11.9759114583333  C 2.08203125 11.8348524305556  2 11.6345486111111  2 11.375  C 2 11.2395833333333  2.03385416666667 11.1069878472222  2.1015625 10.9772135416667  C 1.8671875 10.8135850694444  1.75 10.5850694444444  1.75 10.2916666666667  C 1.75 10.0828993055556  1.81510416666667 9.90234375  1.9453125 9.75  C 1.81510416666667 9.59765625  1.75 9.41710069444444  1.75 9.20833333333333  C 1.75 8.90364583333333  1.87239583333333 8.67230902777778  2.1171875 8.51432291666667  C 2.09635416666667 8.23220486111111  2.0078125 7.92892795138889  1.8515625 7.6044921875  C 1.6953125 7.28005642361111  1.54036458333333 7.01063368055556  1.38671875 6.79622395833333  C 1.23307291666667 6.58181423611111  1.0390625 6.33637152777778  0.8046875 6.05989583333333  C 0.268229166666667 5.42230902777778  0 4.66623263888889  0 3.79166666666667  C 0 3.23307291666667  0.115885416666667 2.71256510416667  0.34765625 2.23014322916667  C 0.579427083333333 1.74772135416667  0.884114583333333 1.34711371527778  1.26171875 1.0283203125  C 1.63932291666667 0.709526909722221  2.06640625 0.458441840277776  2.54296875 0.275065104166666  C 3.01953125 0.0916883680555549  3.50520833333333 0  4 0  C 4.49479166666667 0  4.98046875 0.0916883680555549  5.45703125 0.275065104166666  C 5.93359375 0.458441840277776  6.36067708333333 0.709526909722221  6.73828125 1.0283203125  C 7.11588541666667 1.34711371527778  7.42057291666667 1.74772135416667  7.65234375 2.23014322916667  Z " fill-rule="nonzero" fill="#000000" stroke="none" transform="matrix(1 0 0 1 78 514 )" />
  </g>
</svg>