<?xml version="1.0" encoding="utf-8"?>
<svg version="1.1" xmlns:xlink="http://www.w3.org/1999/xlink" width="26px" height="27px" xmlns="http://www.w3.org/2000/svg">
  <g transform="matrix(1 0 0 1 -90 -202 )">
    <path d="M 18.4085656016315 23.6689453125  C 19.9345116700657 22.9482421875  21.2336279175164 21.943359375  22.3059143439837 20.654296875  C 21.6696125084976 20.759765625  21.0215273056877 20.8125  20.361658735554 20.8125  C 18.2170858826195 20.8125  16.2315884885565 20.28515625  14.4051665533651 19.23046875  C 12.5787446181736 18.17578125  11.1352821210061 16.740234375  10.0747790618627 14.923828125  C 9.01427600271924 13.107421875  8.48402447314752 11.1328125  8.48402447314752 9  C 8.48402447314752 6.75  9.09675957398595 4.658203125  10.3222297756628 2.724609375  C 7.9537729435758 3.427734375  6.01835486063902 4.76953125  4.51597552685248 6.75  C 3.01359619306594 8.73046875  2.26240652617267 10.98046875  2.26240652617267 13.5  C 2.26240652617267 15.0234375  2.56288239292998 16.4794921875  3.1638341264446 17.8681640625  C 3.76478585995921 19.2568359375  4.56900067980965 20.4521484375  5.57647858599592 21.4541015625  C 6.58395649218219 22.4560546875  7.78585995921142 23.255859375  9.18218898708362 23.853515625  C 10.5785180149558 24.451171875  12.04260140494 24.75  13.574439157036 24.75  C 15.2712440516655 24.75  16.8826195331974 24.3896484375  18.4085656016315 23.6689453125  Z M 25.9734874235214 18.4921875  C 26.0147292091548 18.7265625  25.9882166326762 18.94921875  25.8939496940857 19.16015625  C 24.786313165647 21.5390625  23.116020847496 23.4404296875  20.8830727396329 24.8642578125  C 18.6501246317698 26.2880859375  16.2139134375708 27  13.574439157036 27  C 11.7362338545207 27  9.98051212327215 26.642578125  8.30727396329028 25.927734375  C 6.63403580330841 25.212890625  5.19057330614095 24.251953125  3.9768864717879 23.044921875  C 2.76319963743485 21.837890625  1.79696351688194 20.40234375  1.07817811012916 18.73828125  C 0.359392703376388 17.07421875  0 15.328125  0 13.5  C 0 11.70703125  0.33877181055971 9.9931640625  1.01631543167913 8.3583984375  C 1.69385905279855 6.7236328125  2.6129617040562 5.30859375  3.77362338545207 4.11328125  C 4.93428506684795 2.91796875  6.32177656922728 1.9541015625  7.93609789259007 1.2216796875  C 9.55041921595287 0.4892578125  11.2590074779062 0.087890625000001  13.06186267845 0.017578124999999  C 13.5803308406979 -0.00585937500000466  13.9397235440743 0.222656249999997  14.1400407885792 0.703124999999999  C 14.3521414004079 1.18359375  14.2637661454793 1.60546875  13.8749150237933 1.96875  C 12.8615454339452 2.8828125  12.0867890324043 3.9462890625  11.5506458191706 5.1591796875  C 11.014502605937 6.3720703125  10.7464309993202 7.65234375  10.7464309993202 9  C 10.7464309993202 10.734375  11.1765239066395 12.333984375  12.036709721278 13.798828125  C 12.8968955359166 15.263671875  14.0634489009744 16.423828125  15.5363698164514 17.279296875  C 17.0092907319284 18.134765625  18.6177203716293 18.5625  20.361658735554 18.5625  C 21.7520960797643 18.5625  23.0953999546794 18.263671875  24.3915703602991 17.666015625  C 24.8746884205756 17.455078125  25.298889644233 17.53125  25.6641740312712 17.89453125  C 25.8291411738047 18.05859375  25.9322456378881 18.2578125  25.9734874235214 18.4921875  Z " fill-rule="nonzero" fill="#96969c" stroke="none" transform="matrix(1 0 0 1 90 202 )" />
  </g>
</svg>