<?xml version="1.0" encoding="utf-8"?>
<svg version="1.1" xmlns:xlink="http://www.w3.org/1999/xlink" width="20px" height="22px" xmlns="http://www.w3.org/2000/svg">
  <g transform="matrix(1 0 0 1 -333 -205 )">
    <path d="M 19.7526041666667 0.272135416666666  C 19.9175347222222 0.453559027777775  20 0.668402777777775  20 0.916666666666666  L 20 21.0833333333333  C 20 21.3315972222222  19.9175347222222 21.5464409722222  19.7526041666667 21.7278645833333  C 19.5876736111111 21.9092881944444  19.3923611111111 22  19.1666666666667 22  L 12.5 22  C 12.2743055555556 22  12.0789930555556 21.9092881944444  11.9140625 21.7278645833333  C 11.7491319444444 21.5464409722222  11.6666666666667 21.3315972222222  11.6666666666667 21.0833333333333  L 11.6666666666667 0.916666666666666  C 11.6666666666667 0.668402777777775  11.7491319444444 0.453559027777775  11.9140625 0.272135416666666  C 12.0789930555556 0.0907118055555545  12.2743055555556 0  12.5 0  L 19.1666666666667 0  C 19.3923611111111 0  19.5876736111111 0.0907118055555545  19.7526041666667 0.272135416666666  Z M 8.0859375 0.272135416666666  C 8.25086805555556 0.453559027777775  8.33333333333333 0.668402777777775  8.33333333333333 0.916666666666666  L 8.33333333333333 21.0833333333333  C 8.33333333333333 21.3315972222222  8.25086805555556 21.5464409722222  8.0859375 21.7278645833333  C 7.92100694444445 21.9092881944444  7.72569444444445 22  7.5 22  L 0.833333333333333 22  C 0.607638888888889 22  0.412326388888889 21.9092881944444  0.247395833333333 21.7278645833333  C 0.0824652777777778 21.5464409722222  0 21.3315972222222  0 21.0833333333333  L 0 0.916666666666666  C 0 0.668402777777775  0.0824652777777778 0.453559027777775  0.247395833333333 0.272135416666666  C 0.412326388888889 0.0907118055555545  0.607638888888889 0  0.833333333333333 0  L 7.5 0  C 7.72569444444445 0  7.92100694444445 0.0907118055555545  8.0859375 0.272135416666666  Z " fill-rule="nonzero" fill="#9e9ea4" stroke="none" transform="matrix(1 0 0 1 333 205 )" />
  </g>
</svg>