<?xml version="1.0" encoding="utf-8"?>
<svg version="1.1" xmlns:xlink="http://www.w3.org/1999/xlink" width="18px" height="12px" xmlns="http://www.w3.org/2000/svg">
  <g transform="matrix(1 0 0 1 -359 -67 )">
    <path d="M 1.5 11.4533336666666  C 0.94771525016921 11.4533336666666  0.5 11.0056184164973  0.5 10.4533336666666  C 0.5 10.4533336666666  0.5 8.45333366666659  0.5 8.45333366666659  C 0.5 7.90104891683586  0.94771525016921 7.45333366666659  1.50000000000006 7.45333366666659  C 1.50000000000006 7.45333366666659  2.50000000000006 7.45333366666659  2.50000000000006 7.45333366666659  C 3.05228474983079 7.45333366666659  3.5 7.90104891683586  3.5 8.45333366666659  C 3.5 8.45333366666659  3.5 10.4533336666666  3.5 10.4533336666666  C 3.5 11.0056184164973  3.05228474983079 11.4533336666666  2.5 11.4533336666666  C 2.5 11.4533336666666  1.5 11.4533336666666  1.5 11.4533336666666  Z M 7.16666666666669 11.4533336666666  C 7.16666666666669 11.4533336666666  6.16666666666669 11.4533336666666  6.16666666666669 11.4533336666666  C 5.6143819168359 11.4533336666666  5.16666666666669 11.0056184164973  5.16666666666669 10.4533336666666  C 5.16666666666669 10.4533336666666  5.16666666666669 6.45333366666659  5.16666666666669 6.45333366666659  C 5.16666666666669 5.90104891683586  5.6143819168359 5.45333366666659  6.16666666666669 5.45333366666659  C 6.16666666666669 5.45333366666659  7.16666666666669 5.45333366666659  7.16666666666669 5.45333366666659  C 7.71895141649748 5.45333366666659  8.16666666666669 5.90104891683586  8.16666666666669 6.45333366666659  C 8.16666666666669 6.45333366666659  8.16666666666669 10.4533336666666  8.16666666666669 10.4533336666666  C 8.16666666666669 11.0056184164973  7.71895141649748 11.4533336666666  7.16666666666669 11.4533336666666  Z M 10.8333333333334 11.4533336666664  C 10.2810485835026 11.4533336666664  9.83333333333343 11.0056184164971  9.83333333333343 10.4533336666664  C 9.83333333333343 10.4533336666664  9.83333333333343 4.12000033333311  9.83333333333343 4.12000033333311  C 9.83333333333343 3.56771558350238  10.2810485835026 3.12000033333311  10.8333333333334 3.12000033333311  C 10.8333333333334 3.12000033333311  11.8333333333334 3.12000033333311  11.8333333333334 3.12000033333311  C 12.3856180831642 3.12000033333311  12.8333333333334 3.56771558350238  12.8333333333334 4.12000033333311  C 12.8333333333334 4.12000033333311  12.8333333333334 10.4533336666664  12.8333333333334 10.4533336666664  C 12.8333333333334 11.0056184164971  12.3856180831642 11.4533336666664  11.8333333333334 11.4533336666664  C 11.8333333333334 11.4533336666664  10.8333333333334 11.4533336666664  10.8333333333334 11.4533336666664  Z M 14.5 1.78666699999985  C 14.5 1.23438225016912  14.9477152501692 0.786666999999852  15.5000000000001 0.786666999999852  C 15.5000000000001 0.786666999999852  16.5000000000001 0.786666999999852  16.5000000000001 0.786666999999852  C 17.0522847498308 0.786666999999852  17.5 1.23438225016912  17.5 1.78666699999985  C 17.5 1.78666699999985  17.5 10.4533336666666  17.5 10.4533336666666  C 17.5 11.0056184164973  17.0522847498308 11.4533336666666  16.5 11.4533336666666  C 16.5 11.4533336666666  15.5 11.4533336666666  15.5 11.4533336666666  C 14.9477152501692 11.4533336666666  14.5 11.0056184164973  14.5 10.4533336666666  C 14.5 10.4533336666666  14.5 1.78666699999985  14.5 1.78666699999985  Z " fill-rule="nonzero" fill="#000000" stroke="none" transform="matrix(1 0 0 1 359 67 )" />
  </g>
</svg>