<?xml version="1.0" encoding="utf-8"?>
<svg version="1.1" xmlns:xlink="http://www.w3.org/1999/xlink" width="43px" height="43px" xmlns="http://www.w3.org/2000/svg">
  <defs>
    <mask fill="white" id="clip338">
      <path d="M 0 13.5  C 0 20.9558441223  6.0441558777 27  13.5 27  C 20.9558441223 27  27 20.9558441223  27 13.5  C 27 6.0441558777  20.9558441223 0  13.5 0  C 6.0441558777 0  0 6.0441558777  0 13.5  Z " fill-rule="evenodd" />
    </mask>
    <filter x="367px" y="442px" width="43px" height="43px" filterUnits="userSpaceOnUse" id="filter339">
      <feOffset dx="0" dy="3" in="SourceAlpha" result="shadowOffsetInner" />
      <feGaussianBlur stdDeviation="4" in="shadowOffsetInner" result="shadowGaussian" />
      <feComposite in2="shadowGaussian" operator="atop" in="SourceAlpha" result="shadowComposite" />
      <feColorMatrix type="matrix" values="0 0 0 0 0  0 0 0 0 0  0 0 0 0 0  0 0 0 0.149019607843137 0  " in="shadowComposite" />
    </filter>
    <g id="widget340">
      <path d="M 0 13.5  C 0 20.9558441223  6.0441558777 27  13.5 27  C 20.9558441223 27  27 20.9558441223  27 13.5  C 27 6.0441558777  20.9558441223 0  13.5 0  C 6.0441558777 0  0 6.0441558777  0 13.5  Z " fill-rule="nonzero" fill="#ffffff" stroke="none" transform="matrix(1 0 0 1 375 447 )" />
      <path d="M 0 13.5  C 0 20.9558441223  6.0441558777 27  13.5 27  C 20.9558441223 27  27 20.9558441223  27 13.5  C 27 6.0441558777  20.9558441223 0  13.5 0  C 6.0441558777 0  0 6.0441558777  0 13.5  Z " stroke-width="1" stroke="#000000" fill="none" stroke-opacity="0.0392156862745098" transform="matrix(1 0 0 1 375 447 )" mask="url(#clip338)" />
    </g>
  </defs>
  <g transform="matrix(1 0 0 1 -367 -442 )">
    <use xlink:href="#widget340" filter="url(#filter339)" />
    <use xlink:href="#widget340" />
  </g>
</svg>