<?xml version="1.0" encoding="utf-8"?>
<svg version="1.1" xmlns:xlink="http://www.w3.org/1999/xlink" width="51px" height="31px" xmlns="http://www.w3.org/2000/svg">
  <g transform="matrix(1 0 0 1 -353 -445 )">
    <path d="M 11.204 0.80314825656949  C 12.737 0.374150362807473  14.277 0.182151305459436  15.857 0.0921517473275441  C 17.597 -0.00784776170789305  19.335 0.000152199014940923  21.075 0.000152199014940923  C 21.087 0.000152199014940923  29.892 0.000152199014940923  29.892 0.000152199014940923  C 31.666 0.000152199014940923  33.404 -0.00784776170789305  35.143 0.0921517473275441  C 36.724 0.182151305459436  38.264 0.374150362807473  39.797 0.80314825656949  C 43.024 1.70514382806912  45.842 3.58913457829673  47.879 6.26012146463322  C 49.904 8.91410843443368  51 12.163092482995  51 15.4990761044171  C 51 18.8390597062007  49.904 22.0860437645813  47.879 24.7400307343817  C 45.842 27.4100176256279  43.024 29.2950083709458  39.797 30.1970039424455  C 38.264 30.6260018362075  36.724 30.8170008984652  35.143 30.9080004516874  C 33.404 31.0079999607228  31.666 30.9990000049097  29.926 30.9990000049097  C 29.914 30.9990000049097  21.107 31  21.107 31  C 19.335 30.9990000049097  17.597 31.0079999607228  15.857 30.9080004516874  C 14.277 30.8170008984652  12.737 30.6260018362075  11.204 30.1970039424455  C 7.977 29.2950083709458  5.159 27.4100176256279  3.122 24.7400307343817  C 1.097 22.0860437645813  0 18.8390597062007  0 15.5000760995075  C 0 12.163092482995  1.097 8.91410843443368  3.122 6.26012146463322  C 5.159 3.58913457829673  7.977 1.70514382806912  11.204 0.80314825656949  Z " fill-rule="nonzero" fill="#000000" stroke="none" transform="matrix(1 0 0 1 353 445 )" />
  </g>
</svg>