<?xml version="1.0" encoding="utf-8"?>
<svg version="1.1" xmlns:xlink="http://www.w3.org/1999/xlink" width="16px" height="12px" xmlns="http://www.w3.org/2000/svg">
  <g transform="matrix(1 0 0 1 -381 -67 )">
    <path d="M 1.75459069550709 5.11760682229101  C 1.87409395012054 5.23788495470399  2.06831165543247 5.23937767300913  2.18965265867092 5.12095062122671  C 3.80221186984778 3.58925774834142  5.94211873976161 2.73514447263437  8.16706936949276 2.73515008059303  C 10.3918018255066 2.73524746922635  12.5314629135693 3.58935828436961  14.1438167542175 5.12095062122671  C 14.2652312398791 5.23919529422278  14.459299181003 5.23770372697504  14.5788787173813 5.11760682229101  C 14.5788787173813 5.11760682229101  15.7394901698829 3.94727719479033  15.7394901698829 3.94727719479033  C 15.8000388058335 3.8863643813545  15.8337969363799 3.80385445110255  15.8332944701705 3.71800542680944  C 15.8327920039612 3.63215640251656  15.7980703697078 3.55004659989459  15.7368128654942 3.48984550038426  C 11.5049003946071 -0.562384894751403  4.82856901828131 -0.562384894751403  0.596656547394218 3.48984550038426  C 0.535354378074089 3.55000192268176  0.500572273867988 3.63208678787555  0.500006998588958 3.71793593268535  C 0.499441723309985 3.80378507749515  0.533139884894865 3.8863200895662  0.593644579956958 3.94727719479033  C 0.593644579956958 3.94727719479033  1.75459069550709 5.11760682229101  1.75459069550709 5.11760682229101  Z M 4.42720980152706 7.81070248511742  C 4.54667314015916 7.93020930687248  4.73972160202248 7.93273165082155  4.86227176469089 7.81638694330809  C 5.7677417160682 6.99715402595507  6.94553128723447 6.54323962111584  8.16706936949276 6.54273392869345  C 9.3894154018306 6.54265909489413  10.5681407415005 6.9966123507395  11.4742096156347 7.81638694330809  C 11.5967597783032 7.93273165082155  11.7898082401665 7.93020930687248  11.9092715787985 7.81070248511742  C 11.9092715787985 7.81070248511742  13.0685443791057 6.64037285761651  13.0685443791057 6.64037285761651  C 13.1295944566261 6.57898574343608  13.1634684635877 6.49570877672727  13.1625879084581 6.40917316896025  C 13.1617073533286 6.32263756119323  13.1261457310763 6.24006595129367  13.0638590964255 6.17993174416847  C 10.3046973556418 3.61552319096631  6.03178402468382 3.61552319096631  3.27262228390009 6.17993174416824  C 3.21029688659297 6.24006522074478  3.17473749349006 6.32267820345078  3.17391957093361 6.40924177473426  C 3.17310164837716 6.49580534601796  3.20709365402865 6.57907439493761  3.26827166426841 6.64037285761651  C 3.26827166426841 6.64037285761651  4.42720980152706 7.81070248511742  4.42720980152706 7.81070248511742  Z M 8.16706936949276 11.4506727040325  C 8.25069255133513 11.4506727040325  8.33083659238582 11.4172293858169  8.38962029680346 11.3578043961254  C 8.38962029680346 11.3578043961254  10.39492128394 9.33580917969743  10.39492128394 9.33580917969743  C 10.4569208979115 9.27501287339419  10.4910644781382 9.1913489295755  10.4892906967494 9.10457047540626  C 10.4875169153607 9.01779202123703  10.4499829924304 8.93559071200002  10.3855507185796 8.87737434561086  C 9.104890637474 7.79510314577624  7.22924810151164 7.79510314577624  5.94858802040608 8.87737434561086  C 5.88411103848779 8.93554390399913  5.84651566152388 9.01771934048338  5.84467852136515 9.10449824030525  C 5.84284138120643 9.19127714012689  5.87692532058355 9.27496748646308  5.938882791997 9.33580917969766  C 5.938882791997 9.33580917969766  7.94451844218207 11.3578043961254  7.94451844218207 11.3578043961254  C 8.00330214659965 11.4172293858169  8.0834461876504 11.4506727040325  8.16706936949276 11.4506727040325  Z " fill-rule="nonzero" fill="#000000" stroke="none" transform="matrix(1 0 0 1 381 67 )" />
  </g>
</svg>