<?xml version="1.0" encoding="utf-8"?>
<svg version="1.1" xmlns:xlink="http://www.w3.org/1999/xlink" width="18px" height="12px" xmlns="http://www.w3.org/2000/svg">
  <g transform="matrix(1 0 0 1 -359 -67 )">
    <path d="M 1.5 11.4533336666655  C 0.947715250169225 11.4533336666655  0.5 11.0056184164964  0.5 10.4533336666655  C 0.5 10.4533336666655  0.5 8.45333366666546  0.5 8.45333366666546  C 0.5 7.9010489168345  0.947715250169225 7.45333366666546  1.50000000000004 7.45333366666546  C 1.50000000000004 7.45333366666546  2.50000000000004 7.45333366666546  2.50000000000004 7.45333366666546  C 3.05228474983078 7.45333366666546  3.5 7.9010489168345  3.5 8.45333366666546  C 3.5 8.45333366666546  3.5 10.4533336666655  3.5 10.4533336666655  C 3.5 11.0056184164964  3.05228474983078 11.4533336666655  2.5 11.4533336666655  C 2.5 11.4533336666655  1.5 11.4533336666655  1.5 11.4533336666655  Z M 7.16666666666669 11.4533336666655  C 7.16666666666669 11.4533336666655  6.16666666666669 11.4533336666655  6.16666666666669 11.4533336666655  C 5.61438191683588 11.4533336666655  5.16666666666669 11.0056184164964  5.16666666666669 10.4533336666655  C 5.16666666666669 10.4533336666655  5.16666666666669 6.45333366666546  5.16666666666669 6.45333366666546  C 5.16666666666669 5.9010489168345  5.61438191683588 5.45333366666546  6.16666666666669 5.45333366666546  C 6.16666666666669 5.45333366666546  7.16666666666669 5.45333366666546  7.16666666666669 5.45333366666546  C 7.71895141649746 5.45333366666546  8.16666666666669 5.9010489168345  8.16666666666669 6.45333366666546  C 8.16666666666669 6.45333366666546  8.16666666666669 10.4533336666655  8.16666666666669 10.4533336666655  C 8.16666666666669 11.0056184164964  7.71895141649746 11.4533336666655  7.16666666666669 11.4533336666655  Z M 10.8333333333334 11.4533336666659  C 10.2810485835026 11.4533336666659  9.83333333333343 11.0056184164969  9.83333333333343 10.4533336666659  C 9.83333333333343 10.4533336666659  9.83333333333343 4.12000033333243  9.83333333333343 4.12000033333243  C 9.83333333333343 3.56771558350147  10.2810485835026 3.12000033333243  10.8333333333334 3.12000033333243  C 10.8333333333334 3.12000033333243  11.8333333333334 3.12000033333243  11.8333333333334 3.12000033333243  C 12.3856180831642 3.12000033333243  12.8333333333334 3.56771558350147  12.8333333333334 4.12000033333243  C 12.8333333333334 4.12000033333243  12.8333333333334 10.4533336666659  12.8333333333334 10.4533336666659  C 12.8333333333334 11.0056184164969  12.3856180831642 11.4533336666659  11.8333333333334 11.4533336666659  C 11.8333333333334 11.4533336666659  10.8333333333334 11.4533336666659  10.8333333333334 11.4533336666659  Z M 14.5 1.78666699999894  C 14.5 1.23438225016798  14.9477152501692 0.786666999998943  15.5 0.786666999998943  C 15.5 0.786666999998943  16.5 0.786666999998943  16.5 0.786666999998943  C 17.0522847498308 0.786666999998943  17.5 1.23438225016798  17.5 1.78666699999894  C 17.5 1.78666699999894  17.5 10.4533336666655  17.5 10.4533336666655  C 17.5 11.0056184164964  17.0522847498308 11.4533336666655  16.5 11.4533336666655  C 16.5 11.4533336666655  15.5 11.4533336666655  15.5 11.4533336666655  C 14.9477152501692 11.4533336666655  14.5 11.0056184164964  14.5 10.4533336666655  C 14.5 10.4533336666655  14.5 1.78666699999894  14.5 1.78666699999894  Z " fill-rule="nonzero" fill="#ffffff" stroke="none" transform="matrix(1 0 0 1 359 67 )" />
  </g>
</svg>