<?xml version="1.0" encoding="utf-8"?>
<svg version="1.1" xmlns:xlink="http://www.w3.org/1999/xlink" width="16px" height="12px" xmlns="http://www.w3.org/2000/svg">
  <g transform="matrix(1 0 0 1 -381 -67 )">
    <path d="M 1.75459069550709 5.11760682229124  C 1.8740939501206 5.23788495470399  2.06831165543247 5.23937767300913  2.18965265867098 5.12095062122671  C 3.80221186984784 3.58925774834142  5.94211873976155 2.73514447263415  8.16706936949276 2.73515008059303  C 10.3918018255066 2.73524746922612  12.5314629135694 3.58935828436961  14.1438167542175 5.12095062122671  C 14.2652312398792 5.23919529422301  14.459299181003 5.23770372697527  14.5788787173814 5.11760682229124  C 14.5788787173814 5.11760682229124  15.7394901698829 3.94727719479033  15.7394901698829 3.94727719479033  C 15.8000388058335 3.88636438135472  15.8337969363799 3.80385445110232  15.8332944701706 3.71800542680967  C 15.8327920039612 3.63215640251656  15.7980703697078 3.55004659989481  15.7368128654942 3.48984550038404  C 11.504900394607 -0.562384894751176  4.82856901828131 -0.562384894751176  0.596656547394218 3.48984550038404  C 0.535354378074089 3.55000192268153  0.500572273867988 3.63208678787578  0.500006998589015 3.71793593268558  C 0.499441723309928 3.80378507749538  0.533139884894922 3.8863200895662  0.593644579956958 3.94727719479033  C 0.593644579956958 3.94727719479033  1.75459069550709 5.11760682229124  1.75459069550709 5.11760682229124  Z M 4.42720980152694 7.81070248511696  C 4.5466731401591 7.93020930687226  4.73972160202243 7.93273165082155  4.86227176469083 7.81638694330786  C 5.76774171606814 6.99715402595484  6.94553128723442 6.54323962111584  8.16706936949265 6.54273392869345  C 9.38941540183055 6.54265909489413  10.5681407415004 6.99661235073927  11.4742096156347 7.81638694330786  C 11.5967597783031 7.93273165082155  11.7898082401664 7.93020930687226  11.9092715787984 7.81070248511696  C 11.9092715787984 7.81070248511696  13.0685443791057 6.64037285761651  13.0685443791057 6.64037285761651  C 13.1295944566261 6.57898574343562  13.1634684635876 6.49570877672704  13.1625879084581 6.40917316896002  C 13.1617073533286 6.32263756119301  13.1261457310762 6.24006595129322  13.0638590964255 6.17993174416824  C 10.3046973556418 3.61552319096609  6.0317840246837 3.61552319096609  3.27262228389998 6.17993174416824  C 3.21029688659291 6.24006522074433  3.17473749349006 6.32267820345032  3.17391957093355 6.40924177473426  C 3.17310164837704 6.49580534601773  3.20709365402854 6.57907439493738  3.26827166426835 6.64037285761651  C 3.26827166426835 6.64037285761651  4.42720980152694 7.81070248511696  4.42720980152694 7.81070248511696  Z M 8.16706936949276 11.4506727040325  C 8.25069255133519 11.4506727040325  8.33083659238582 11.4172293858169  8.38962029680351 11.3578043961256  C 8.38962029680351 11.3578043961256  10.39492128394 9.33580917969766  10.39492128394 9.33580917969766  C 10.4569208979115 9.27501287339419  10.4910644781382 9.19134892957572  10.4892906967494 9.10457047540649  C 10.4875169153607 9.01779202123726  10.4499829924304 8.93559071199979  10.3855507185796 8.87737434561086  C 9.104890637474 7.79510314577601  7.22924810151176 7.79510314577601  5.94858802040608 8.87737434561086  C 5.88411103848784 8.93554390399913  5.84651566152388 9.01771934048338  5.84467852136527 9.10449824030502  C 5.84284138120643 9.19127714012711  5.87692532058361 9.27496748646308  5.938882791997 9.33580917969766  C 5.938882791997 9.33580917969766  7.94451844218213 11.3578043961256  7.94451844218213 11.3578043961256  C 8.00330214659971 11.4172293858169  8.08344618765045 11.4506727040325  8.16706936949276 11.4506727040325  Z " fill-rule="nonzero" fill="#ffffff" stroke="none" transform="matrix(1 0 0 1 381 67 )" />
  </g>
</svg>