<?xml version="1.0" encoding="utf-8"?>
<svg version="1.1" xmlns:xlink="http://www.w3.org/1999/xlink" width="391px" height="25px" xmlns="http://www.w3.org/2000/svg">
  <g transform="matrix(1 0 0 1 -50 -96 )">
    <path d="M 373.584183673469 10  L 16.4158163265306 10  C 16.4158163265306 4.40000000000009  20.7933673469388 0  26.3647959183673 0  L 363.635204081633 0  C 369.206632653061 0  373.584183673469 4.40000000000009  373.584183673469 10  Z M 389.502551020408 24  L 0.497448979591837 24  L 0.497448979591837 20  C 0.497448979591837 14.4000000000001  4.87499999999998 10  10.4464285714286 10  L 379.553571428571 10  C 385.125 10  389.502551020408 14.4000000000001  389.502551020408 20  L 389.502551020408 24  Z M 16.4158163265306 10  L 373.584183673469 10  L 16.4158163265306 10  Z " fill-rule="nonzero" fill="#000000" stroke="none" transform="matrix(1 0 0 1 50 96 )" />
  </g>
</svg>