<?xml version="1.0" encoding="utf-8"?>
<svg version="1.1" xmlns:xlink="http://www.w3.org/1999/xlink" width="78px" height="78px" xmlns="http://www.w3.org/2000/svg">
  <defs>
    <mask fill="white" id="clip359">
      <path d="M 0 39  C 0 60.5391052422  17.4608947578 78  39 78  C 60.5391052422 78  78 60.5391052422  78 39  C 78 17.4608947578  60.5391052422 0  39 0  C 17.4608947578 0  0 17.4608947578  0 39  Z " fill-rule="evenodd" />
    </mask>
  </defs>
  <g transform="matrix(1 0 0 1 -206 -758 )">
    <path d="M 0 39  C 0 60.5391052422  17.4608947578 78  39 78  C 60.5391052422 78  78 60.5391052422  78 39  C 78 17.4608947578  60.5391052422 0  39 0  C 17.4608947578 0  0 17.4608947578  0 39  Z " fill-rule="nonzero" fill="#ffffff" stroke="none" fill-opacity="0" transform="matrix(1 0 0 1 206 758 )" />
    <path d="M 0 39  C 0 60.5391052422  17.4608947578 78  39 78  C 60.5391052422 78  78 60.5391052422  78 39  C 78 17.4608947578  60.5391052422 0  39 0  C 17.4608947578 0  0 17.4608947578  0 39  Z " stroke-width="6" stroke="#000000" fill="none" stroke-opacity="0.254901960784314" transform="matrix(1 0 0 1 206 758 )" mask="url(#clip359)" />
  </g>
</svg>