<?xml version="1.0" encoding="utf-8"?>
<svg version="1.1" xmlns:xlink="http://www.w3.org/1999/xlink" width="68px" height="68px" xmlns="http://www.w3.org/2000/svg">
  <g transform="matrix(1 0 0 1 -266 -605 )">
    <path d="M 50.0260416666667 39.77734375  C 50.3802083333333 40.4709201388889  50.4392361111111 41.1866319444444  50.203125 41.9244791666667  C 49.1111111111111 45.4956597222222  47.0746527777778 48.3732638888889  44.09375 50.5572916666667  C 41.1128472222222 52.7413194444444  37.7482638888889 53.8333333333333  34 53.8333333333333  C 30.2517361111111 53.8333333333333  26.8871527777778 52.7413194444444  23.90625 50.5572916666667  C 20.9253472222222 48.3732638888889  18.8888888888889 45.4956597222222  17.796875 41.9244791666667  C 17.5607638888889 41.1866319444444  17.6197916666667 40.4709201388889  17.9739583333333 39.77734375  C 18.328125 39.0837673611111  18.8888888888889 38.6189236111111  19.65625 38.3828125  C 20.3940972222222 38.1467013888889  21.1098090277778 38.2057291666667  21.8033854166667 38.5598958333333  C 22.4969618055556 38.9140625  22.9618055555556 39.4748263888889  23.1979166666667 40.2421875  C 23.9357638888889 42.6032986111111  25.30078125 44.5143229166667  27.29296875 45.9752604166667  C 29.28515625 47.4361979166667  31.5208333333333 48.1666666666667  34 48.1666666666667  C 36.4791666666667 48.1666666666667  38.71484375 47.4361979166667  40.70703125 45.9752604166667  C 42.69921875 44.5143229166667  44.0642361111111 42.6032986111111  44.8020833333333 40.2421875  C 45.0381944444444 39.4748263888889  45.5104166666667 38.9140625  46.21875 38.5598958333333  C 46.9270833333333 38.2057291666667  47.6501736111111 38.1467013888889  48.3880208333333 38.3828125  C 49.1258680555556 38.6189236111111  49.671875 39.0837673611111  50.0260416666667 39.77734375  Z M 26.6731770833333 18.66015625  C 27.7799479166667 19.7669270833333  28.3333333333333 21.1024305555556  28.3333333333333 22.6666666666667  C 28.3333333333333 24.2309027777778  27.7799479166667 25.56640625  26.6731770833333 26.6731770833333  C 25.56640625 27.7799479166667  24.2309027777778 28.3333333333333  22.6666666666667 28.3333333333333  C 21.1024305555556 28.3333333333333  19.7669270833333 27.7799479166667  18.66015625 26.6731770833333  C 17.5533854166667 25.56640625  17 24.2309027777778  17 22.6666666666667  C 17 21.1024305555556  17.5533854166667 19.7669270833333  18.66015625 18.66015625  C 19.7669270833333 17.5533854166667  21.1024305555556 17  22.6666666666667 17  C 24.2309027777778 17  25.56640625 17.5533854166667  26.6731770833333 18.66015625  Z M 49.33984375 18.66015625  C 50.4466145833333 19.7669270833333  51 21.1024305555556  51 22.6666666666667  C 51 24.2309027777778  50.4466145833333 25.56640625  49.33984375 26.6731770833333  C 48.2330729166667 27.7799479166667  46.8975694444444 28.3333333333333  45.3333333333333 28.3333333333333  C 43.7690972222222 28.3333333333333  42.43359375 27.7799479166667  41.3268229166667 26.6731770833333  C 40.2200520833333 25.56640625  39.6666666666667 24.2309027777778  39.6666666666667 22.6666666666667  C 39.6666666666667 21.1024305555556  40.2200520833333 19.7669270833333  41.3268229166667 18.66015625  C 42.43359375 17.5533854166667  43.7690972222222 17  45.3333333333333 17  C 46.8975694444444 17  48.2330729166667 17.5533854166667  49.33984375 18.66015625  Z M 60.0755208333333 45.0013020833333  C 61.5807291666667 41.50390625  62.3333333333333 37.8368055555556  62.3333333333333 34  C 62.3333333333333 30.1631944444444  61.5807291666667 26.49609375  60.0755208333333 22.9986979166667  C 58.5703125 19.5013020833333  56.5559895833333 16.4908854166667  54.0325520833333 13.9674479166667  C 51.5091145833333 11.4440104166667  48.4986979166667 9.4296875  45.0013020833333 7.92447916666667  C 41.50390625 6.41927083333333  37.8368055555556 5.66666666666667  34 5.66666666666667  C 30.1631944444444 5.66666666666667  26.49609375 6.41927083333333  22.9986979166667 7.92447916666667  C 19.5013020833333 9.4296875  16.4908854166667 11.4440104166667  13.9674479166667 13.9674479166667  C 11.4440104166667 16.4908854166667  9.4296875 19.5013020833333  7.92447916666667 22.9986979166667  C 6.41927083333333 26.49609375  5.66666666666667 30.1631944444444  5.66666666666667 34  C 5.66666666666667 37.8368055555556  6.41927083333333 41.50390625  7.92447916666667 45.0013020833333  C 9.4296875 48.4986979166667  11.4440104166667 51.5091145833333  13.9674479166667 54.0325520833333  C 16.4908854166667 56.5559895833333  19.5013020833333 58.5703125  22.9986979166667 60.0755208333333  C 26.49609375 61.5807291666667  30.1631944444444 62.3333333333333  34 62.3333333333333  C 37.8368055555556 62.3333333333333  41.50390625 61.5807291666667  45.0013020833333 60.0755208333333  C 48.4986979166667 58.5703125  51.5091145833333 56.5559895833333  54.0325520833333 54.0325520833333  C 56.5559895833333 51.5091145833333  58.5703125 48.4986979166667  60.0755208333333 45.0013020833333  Z M 63.4401041666667 16.93359375  C 66.4800347222222 22.1427951388889  68 27.8315972222222  68 34  C 68 40.1684027777778  66.4800347222222 45.8572048611111  63.4401041666667 51.06640625  C 60.4001736111111 56.2756076388889  56.2756076388889 60.4001736111111  51.06640625 63.4401041666667  C 45.8572048611111 66.4800347222222  40.1684027777778 68  34 68  C 27.8315972222222 68  22.1427951388889 66.4800347222222  16.93359375 63.4401041666667  C 11.7243923611111 60.4001736111111  7.59982638888889 56.2756076388889  4.55989583333333 51.06640625  C 1.51996527777778 45.8572048611111  0 40.1684027777778  0 34  C 0 27.8315972222222  1.51996527777778 22.1427951388889  4.55989583333333 16.93359375  C 7.59982638888889 11.7243923611111  11.7243923611111 7.59982638888888  16.93359375 4.55989583333333  C 22.1427951388889 1.51996527777777  27.8315972222222 0  34 0  C 40.1684027777778 0  45.8572048611111 1.51996527777777  51.06640625 4.55989583333333  C 56.2756076388889 7.59982638888888  60.4001736111111 11.7243923611111  63.4401041666667 16.93359375  Z " fill-rule="nonzero" fill="#000000" stroke="none" transform="matrix(1 0 0 1 266 605 )" />
  </g>
</svg>