<?xml version="1.0" encoding="utf-8"?>
<svg version="1.1" xmlns:xlink="http://www.w3.org/1999/xlink" width="52px" height="52px" xmlns="http://www.w3.org/2000/svg">
  <defs>
    <mask fill="white" id="clip345">
      <path d="M 0 26  C 0 40.3594034948  11.6405965052 52  26 52  C 40.3594034948 52  52 40.3594034948  52 26  C 52 11.6405965052  40.3594034948 0  26 0  C 11.6405965052 0  0 11.6405965052  0 26  Z " fill-rule="evenodd" />
    </mask>
  </defs>
  <g transform="matrix(1 0 0 1 -541 -820 )">
    <path d="M 0 26  C 0 40.3594034948  11.6405965052 52  26 52  C 40.3594034948 52  52 40.3594034948  52 26  C 52 11.6405965052  40.3594034948 0  26 0  C 11.6405965052 0  0 11.6405965052  0 26  Z " fill-rule="nonzero" fill="#ffd8b8" stroke="none" transform="matrix(1 0 0 1 541 820 )" />
    <path d="M 0 26  C 0 40.3594034948  11.6405965052 52  26 52  C 40.3594034948 52  52 40.3594034948  52 26  C 52 11.6405965052  40.3594034948 0  26 0  C 11.6405965052 0  0 11.6405965052  0 26  Z " stroke-width="6" stroke="#ebebeb" fill="none" transform="matrix(1 0 0 1 541 820 )" mask="url(#clip345)" />
  </g>
</svg>