<?xml version="1.0" encoding="utf-8"?>
<svg version="1.1" xmlns:xlink="http://www.w3.org/1999/xlink" width="11px" height="18px" xmlns="http://www.w3.org/2000/svg">
  <g transform="matrix(1 0 0 1 -456 -777 )">
    <path d="M 7.50341796875 4.1953125  C 7.77197265625 4.4921875  7.90625 4.84375  7.90625 5.25  C 7.90625 5.3515625  7.87223307291667 5.439453125  7.80419921875 5.513671875  C 7.73616536458333 5.587890625  7.65559895833333 5.625  7.5625 5.625  C 7.46940104166667 5.625  7.38883463541667 5.587890625  7.32080078125 5.513671875  C 7.25276692708333 5.439453125  7.21875 5.3515625  7.21875 5.25  C 7.21875 4.890625  7.025390625 4.61328125  6.638671875 4.41796875  C 6.251953125 4.22265625  5.87239583333333 4.125  5.5 4.125  C 5.40690104166667 4.125  5.32633463541667 4.087890625  5.25830078125 4.013671875  C 5.19026692708333 3.939453125  5.15625 3.8515625  5.15625 3.75  C 5.15625 3.6484375  5.19026692708333 3.560546875  5.25830078125 3.486328125  C 5.32633463541667 3.412109375  5.40690104166667 3.375  5.5 3.375  C 5.85807291666667 3.375  6.21435546875 3.4375  6.56884765625 3.5625  C 6.92333984375 3.6875  7.23486328125 3.8984375  7.50341796875 4.1953125  Z M 8.89453125 7.359375  C 9.38151041666667 6.7421875  9.625 6.0390625  9.625 5.25  C 9.625 4.6875  9.50146484375 4.1640625  9.25439453125 3.6796875  C 9.00732421875 3.1953125  8.68505859375 2.798828125  8.28759765625 2.490234375  C 7.89013671875 2.181640625  7.44970703125 1.939453125  6.96630859375 1.763671875  C 6.48291015625 1.587890625  5.994140625 1.5  5.5 1.5  C 5.005859375 1.5  4.51708984375 1.587890625  4.03369140625 1.763671875  C 3.55029296875 1.939453125  3.10986328125 2.181640625  2.71240234375 2.490234375  C 2.31494140625 2.798828125  1.99267578125 3.1953125  1.74560546875 3.6796875  C 1.49853515625 4.1640625  1.375 4.6875  1.375 5.25  C 1.375 6.0390625  1.61848958333333 6.7421875  2.10546875 7.359375  C 2.17708333333333 7.4453125  2.28629557291667 7.57421875  2.43310546875 7.74609375  C 2.57991536458333 7.91796875  2.68912760416667 8.046875  2.7607421875 8.1328125  C 3.67740885416667 9.328125  4.18229166666667 10.4921875  4.275390625 11.625  L 6.724609375 11.625  C 6.81770833333333 10.4921875  7.32259114583333 9.328125  8.2392578125 8.1328125  C 8.31087239583333 8.046875  8.42008463541667 7.91796875  8.56689453125 7.74609375  C 8.71370442708333 7.57421875  8.82291666666667 7.4453125  8.89453125 7.359375  Z M 10.52197265625 3.087890625  C 10.8406575520833 3.755859375  11 4.4765625  11 5.25  C 11 6.4609375  10.6311848958333 7.5078125  9.8935546875 8.390625  C 9.5712890625 8.7734375  9.30452473958333 9.11328125  9.09326171875 9.41015625  C 8.88199869791667 9.70703125  8.6689453125 10.080078125  8.4541015625 10.529296875  C 8.2392578125 10.978515625  8.11751302083333 11.3984375  8.0888671875 11.7890625  C 8.42545572916667 12.0078125  8.59375 12.328125  8.59375 12.75  C 8.59375 13.0390625  8.50423177083333 13.2890625  8.3251953125 13.5  C 8.50423177083333 13.7109375  8.59375 13.9609375  8.59375 14.25  C 8.59375 14.65625  8.4326171875 14.97265625  8.1103515625 15.19921875  C 8.20345052083333 15.37890625  8.25 15.5625  8.25 15.75  C 8.25 16.109375  8.13720703125 16.38671875  7.91162109375 16.58203125  C 7.68603515625 16.77734375  7.40852864583333 16.875  7.0791015625 16.875  C 6.93587239583333 17.21875  6.72102864583333 17.4921875  6.4345703125 17.6953125  C 6.14811197916667 17.8984375  5.83658854166667 18  5.5 18  C 5.16341145833333 18  4.85188802083333 17.8984375  4.5654296875 17.6953125  C 4.27897135416667 17.4921875  4.06412760416667 17.21875  3.9208984375 16.875  C 3.59147135416667 16.875  3.31396484375 16.77734375  3.08837890625 16.58203125  C 2.86279296875 16.38671875  2.75 16.109375  2.75 15.75  C 2.75 15.5625  2.79654947916667 15.37890625  2.8896484375 15.19921875  C 2.5673828125 14.97265625  2.40625 14.65625  2.40625 14.25  C 2.40625 13.9609375  2.49576822916667 13.7109375  2.6748046875 13.5  C 2.49576822916667 13.2890625  2.40625 13.0390625  2.40625 12.75  C 2.40625 12.328125  2.57454427083333 12.0078125  2.9111328125 11.7890625  C 2.88248697916667 11.3984375  2.7607421875 10.978515625  2.5458984375 10.529296875  C 2.3310546875 10.080078125  2.11800130208333 9.70703125  1.90673828125 9.41015625  C 1.69547526041667 9.11328125  1.4287109375 8.7734375  1.1064453125 8.390625  C 0.368815104166667 7.5078125  0 6.4609375  0 5.25  C 0 4.4765625  0.159342447916667 3.755859375  0.47802734375 3.087890625  C 0.796712239583333 2.419921875  1.21565755208333 1.865234375  1.73486328125 1.423828125  C 2.25406901041667 0.982421874999998  2.84130859375 0.634765624999998  3.49658203125 0.380859374999999  C 4.15185546875 0.126953124999999  4.81966145833333 0  5.5 0  C 6.18033854166667 0  6.84814453125 0.126953124999999  7.50341796875 0.380859374999999  C 8.15869140625 0.634765624999998  8.74593098958333 0.982421874999998  9.26513671875 1.423828125  C 9.78434244791667 1.865234375  10.2032877604167 2.419921875  10.52197265625 3.087890625  Z " fill-rule="nonzero" fill="#000000" stroke="none" transform="matrix(1 0 0 1 456 777 )" />
  </g>
</svg>