<?xml version="1.0" encoding="utf-8"?>
<svg version="1.1" xmlns:xlink="http://www.w3.org/1999/xlink" width="18px" height="15px" xmlns="http://www.w3.org/2000/svg">
  <g transform="matrix(1 0 0 1 -454 -439 )">
    <path d="M 8.10216346153846 1.28691983122363  C 8.23918269230769 1.42053445850914  8.30769230769231 1.57876230661041  8.30769230769231 1.76160337552743  L 8.30769230769231 13.2383966244726  C 8.30769230769231 13.4212376933896  8.23918269230769 13.5794655414909  8.10216346153846 13.7130801687764  C 7.96514423076923 13.8466947960619  7.80288461538462 13.9135021097046  7.61538461538461 13.9135021097046  C 7.42788461538462 13.9135021097046  7.265625 13.8466947960619  7.12860576923077 13.7130801687764  L 3.52644230769231 10.2004219409283  L 0.692307692307692 10.2004219409283  C 0.504807692307692 10.2004219409283  0.342548076923077 10.1336146272855  0.205528846153846 10  C 0.0685096153846154 9.86638537271449  0 9.70815752461322  0 9.5253164556962  L 0 5.4746835443038  C 0 5.29184247538678  0.0685096153846154 5.13361462728551  0.205528846153846 5  C 0.342548076923077 4.86638537271449  0.504807692307692 4.79957805907173  0.692307692307692 4.79957805907173  L 3.52644230769231 4.79957805907173  L 7.12860576923077 1.28691983122363  C 7.265625 1.15330520393812  7.42788461538462 1.08649789029536  7.61538461538461 1.08649789029536  C 7.80288461538462 1.08649789029536  7.96514423076923 1.15330520393812  8.10216346153846 1.28691983122363  Z M 12.0018028846154 6.00210970464135  C 12.3082932692308 6.4662447257384  12.4615384615385 6.96554149085794  12.4615384615385 7.5  C 12.4615384615385 8.03445850914205  12.3082932692308 8.53199718706048  12.0018028846154 8.99261603375527  C 11.6953125 9.45323488045007  11.2896634615385 9.78199718706048  10.7848557692308 9.9789029535865  C 10.7127403846154 10.014064697609  10.6225961538462 10.0316455696203  10.5144230769231 10.0316455696203  C 10.3269230769231 10.0316455696203  10.1646634615385 9.96659634317862  10.0276442307692 9.83649789029536  C 9.890625 9.70639943741209  9.82211538461538 9.5464135021097  9.82211538461538 9.35654008438819  C 9.82211538461538 9.20886075949367  9.86538461538462 9.08403656821378  9.95192307692308 8.98206751054852  C 10.0384615384615 8.88009845288326  10.1430288461538 8.79219409282701  10.265625 8.71835443037975  C 10.3882211538462 8.64451476793249  10.5108173076923 8.56364275668073  10.6334134615385 8.47573839662447  C 10.7560096153846 8.38783403656821  10.8605769230769 8.2612517580872  10.9471153846154 8.09599156118143  C 11.0336538461538 7.93073136427567  11.0769230769231 7.73206751054852  11.0769230769231 7.5  C 11.0769230769231 7.26793248945148  11.0336538461538 7.06926863572433  10.9471153846154 6.90400843881856  C 10.8605769230769 6.7387482419128  10.7560096153846 6.61216596343179  10.6334134615385 6.52426160337553  C 10.5108173076923 6.43635724331927  10.3882211538462 6.35548523206751  10.265625 6.28164556962025  C 10.1430288461538 6.20780590717299  10.0384615384615 6.11990154711674  9.95192307692308 6.01793248945148  C 9.86538461538462 5.91596343178622  9.82211538461538 5.79113924050633  9.82211538461538 5.64345991561181  C 9.82211538461538 5.45358649789029  9.890625 5.2936005625879  10.0276442307692 5.16350210970464  C 10.1646634615385 5.03340365682138  10.3269230769231 4.96835443037975  10.5144230769231 4.96835443037975  C 10.6225961538462 4.96835443037975  10.7127403846154 4.985935302391  10.7848557692308 5.0210970464135  C 11.2896634615385 5.21097046413502  11.6953125 5.5379746835443  12.0018028846154 6.00210970464135  Z M 14.3112980769231 4.52004219409283  C 14.9242788461538 5.43073136427567  15.2307692307692 6.42405063291139  15.2307692307692 7.5  C 15.2307692307692 8.57594936708861  14.9242788461538 9.56926863572433  14.3112980769231 10.4799578059072  C 13.6983173076923 11.39064697609  12.8870192307692 12.0534458509142  11.8774038461538 12.4683544303797  C 11.7836538461538 12.5035161744023  11.6935096153846 12.5210970464135  11.6069711538462 12.5210970464135  C 11.4122596153846 12.5210970464135  11.2463942307692 12.4542897327707  11.109375 12.3206751054852  C 10.9723557692308 12.1870604781997  10.9038461538462 12.0288326300985  10.9038461538462 11.8459915611814  C 10.9038461538462 11.5717299578059  11.0444711538462 11.3642756680731  11.3257211538462 11.2236286919831  C 11.7295673076923 11.0196905766526  12.0036057692308 10.8649789029536  12.1478365384615 10.7594936708861  C 12.6814903846154 10.379746835443  13.0979567307692 9.90330520393811  13.3972355769231 9.33016877637131  C 13.6965144230769 8.7570323488045  13.8461538461538 8.14697609001406  13.8461538461538 7.5  C 13.8461538461538 6.85302390998593  13.6965144230769 6.2429676511955  13.3972355769231 5.66983122362869  C 13.0979567307692 5.09669479606188  12.6814903846154 4.62025316455696  12.1478365384615 4.24050632911392  C 12.0036057692308 4.13502109704641  11.7295673076923 3.9803094233474  11.3257211538462 3.77637130801688  C 11.0444711538462 3.63572433192686  10.9038461538462 3.42827004219409  10.9038461538462 3.15400843881856  C 10.9038461538462 2.97116736990155  10.9723557692308 2.81293952180028  11.109375 2.67932489451477  C 11.2463942307692 2.54571026722925  11.4086538461538 2.4789029535865  11.5961538461538 2.4789029535865  C 11.6899038461538 2.4789029535865  11.7836538461538 2.49648382559775  11.8774038461538 2.53164556962025  C 12.8870192307692 2.94655414908579  13.6983173076923 3.60935302390998  14.3112980769231 4.52004219409283  Z M 16.6262019230769 3.04324894514768  C 17.5420673076923 4.39697609001406  18 5.88255977496484  18 7.5  C 18 9.11744022503516  17.5420673076923 10.6030239099859  16.6262019230769 11.9567510548523  C 15.7103365384615 13.3104781997187  14.4915865384615 14.3073136427567  12.9699519230769 14.9472573839662  C 12.8762019230769 14.9824191279887  12.7824519230769 15  12.6887019230769 15  C 12.5012019230769 15  12.3389423076923 14.9331926863572  12.2019230769231 14.7995780590717  C 12.0649038461538 14.6659634317862  11.9963942307692 14.5077355836849  11.9963942307692 14.3248945147679  C 11.9963942307692 14.0717299578059  12.1370192307692 13.8642756680731  12.4182692307692 13.7025316455696  C 12.46875 13.6744022503516  12.5498798076923 13.637482419128  12.6616586538462 13.5917721518987  C 12.7734375 13.5460618846695  12.8545673076923 13.5091420534459  12.9050480769231 13.4810126582278  C 13.2367788461538 13.3052039381153  13.5324519230769 13.1258790436006  13.7920673076923 12.9430379746835  C 14.6790865384615 12.303094233474  15.3713942307692 11.5049226441631  15.8689903846154 10.5485232067511  C 16.3665865384615 9.59212376933896  16.6153846153846 8.57594936708861  16.6153846153846 7.5  C 16.6153846153846 6.42405063291139  16.3665865384615 5.40787623066104  15.8689903846154 4.45147679324895  C 15.3713942307692 3.49507735583685  14.6790865384615 2.69690576652602  13.7920673076923 2.05696202531646  C 13.5324519230769 1.87412095639944  13.2367788461538 1.69479606188467  12.9050480769231 1.51898734177215  C 12.8545673076923 1.49085794655415  12.7734375 1.45393811533052  12.6616586538462 1.40822784810127  C 12.5498798076923 1.36251758087201  12.46875 1.32559774964838  12.4182692307692 1.29746835443038  C 12.1370192307692 1.13572433192686  11.9963942307692 0.928270042194092  11.9963942307692 0.675105485232068  C 11.9963942307692 0.492264416315047  12.0649038461538 0.334036568213782  12.2019230769231 0.20042194092827  C 12.3389423076923 0.066807313642756  12.5012019230769 0  12.6887019230769 0  C 12.7824519230769 0  12.8762019230769 0.0175808720112508  12.9699519230769 0.0527426160337557  C 14.4915865384615 0.692686357243317  15.7103365384615 1.68952180028129  16.6262019230769 3.04324894514768  Z " fill-rule="nonzero" fill="#000000" stroke="none" transform="matrix(1 0 0 1 454 439 )" />
  </g>
</svg>