<?xml version="1.0" encoding="utf-8"?>
<svg version="1.1" xmlns:xlink="http://www.w3.org/1999/xlink" width="24px" height="21px" xmlns="http://www.w3.org/2000/svg">
  <g transform="matrix(1 0 0 1 -1366 -200 )">
    <path d="M 18.7366071428571 12.373046875  C 18.8169642857143 12.455078125  18.8571428571429 12.5598958333333  18.8571428571429 12.6875  L 18.8571428571429 17.0625  C 18.8571428571429 18.1471354166667  18.4799107142857 19.0745442708333  17.7254464285714 19.8447265625  C 16.9709821428571 20.6149088541667  16.0625 21  15 21  L 3.85714285714286 21  C 2.79464285714286 21  1.88616071428571 20.6149088541667  1.13169642857143 19.8447265625  C 0.377232142857143 19.0745442708333  0 18.1471354166667  0 17.0625  L 0 5.6875  C 0 4.60286458333333  0.377232142857143 3.67545572916667  1.13169642857143 2.9052734375  C 1.88616071428571 2.13509114583333  2.79464285714286 1.75  3.85714285714286 1.75  L 13.2857142857143 1.75  C 13.4107142857143 1.75  13.5133928571429 1.791015625  13.59375 1.873046875  C 13.6741071428571 1.955078125  13.7142857142857 2.05989583333333  13.7142857142857 2.1875  L 13.7142857142857 3.0625  C 13.7142857142857 3.19010416666667  13.6741071428571 3.294921875  13.59375 3.376953125  C 13.5133928571429 3.458984375  13.4107142857143 3.5  13.2857142857143 3.5  L 3.85714285714286 3.5  C 3.26785714285714 3.5  2.76339285714286 3.71419270833333  2.34375 4.142578125  C 1.92410714285714 4.57096354166667  1.71428571428571 5.0859375  2 5.6875  L 2 17.0625  C 1.71428571428571 17.6640625  1.92410714285714 18.1790364583333  2.34375 18.607421875  C 2.76339285714286 19.0358072916667  3.26785714285714 19.25  3.85714285714286 19  L 15 19  C 15.5892857142857 19.25  16.09375 19.0358072916667  16.5133928571429 18.607421875  C 16.9330357142857 18.1790364583333  17.1428571428571 17.6640625  17.1428571428571 17.0625  L 17.1428571428571 12.6875  C 17.1428571428571 12.5598958333333  17.1830357142857 12.455078125  17.2633928571429 12.373046875  C 17.34375 12.291015625  17.4464285714286 12.25  17.5714285714286 12.25  L 18.4285714285714 12.25  C 18.5535714285714 12.25  18.65625 12.291015625  18.7366071428571 12.373046875  Z M 23.7455357142857 0.259765624999999  C 23.9151785714286 0.43294270833333  24 0.63802083333333  24 0.874999999999999  L 24 7.875  C 24 8.11197916666667  23.9151785714286 8.31705729166667  23.7455357142857 8.490234375  C 23.5758928571429 8.66341145833333  23.375 8.75  23.1428571428571 8.75  C 22.9107142857143 8.75  22.7098214285714 8.66341145833333  22.5401785714286 8.490234375  L 20.1830357142857 6.083984375  L 11.4508928571429 14.998046875  C 11.3616071428571 15.0891927083333  11.2589285714286 15.134765625  11.1428571428571 15.134765625  C 11.0267857142857 15.134765625  10.9241071428571 15.0891927083333  10.8348214285714 14.998046875  L 9.30803571428572 13.439453125  C 9.21875 13.3483072916667  9.17410714285714 13.2434895833333  9.17410714285714 13.125  C 9.17410714285714 13.0065104166667  9.21875 12.9016927083333  9.30803571428572 12.810546875  L 18.0401785714286 3.896484375  L 15.6830357142857 1.490234375  C 15.5133928571429 1.31705729166667  15.4285714285714 1.11197916666667  15.4285714285714 0.874999999999999  C 15.4285714285714 0.63802083333333  15.5133928571429 0.43294270833333  15.6830357142857 0.259765624999999  C 15.8526785714286 0.086588541666668  16.0535714285714 0  16.2857142857143 0  L 23.1428571428571 0  C 23.375 0  23.5758928571429 0.086588541666668  23.7455357142857 0.259765624999999  Z " fill-rule="nonzero" fill="#7d46c3" stroke="none" transform="matrix(1 0 0 1 1366 200 )" />
  </g>
</svg>